<svg width="129" height="26" viewBox="0 0 129 26" fill="none" xmlns="http://www.w3.org/2000/svg">
    <path d="M0.813658 15.7686V11.5235H11.5949V15.7686H0.813658ZM24.833 19.1377C24.833 18.3965 24.5859 17.7676 24.0918 17.251C23.5976 16.7344 22.9575 16.2515 22.1714 15.8023C21.4077 15.3306 20.5879 14.8477 19.7119 14.3535C18.8359 13.8369 18.0049 13.2417 17.2187 12.5679C16.455 11.8941 15.8261 11.0742 15.332 10.1084C14.8379 9.1426 14.5908 7.9634 14.5908 6.57082H20.1836C20.1836 7.28957 20.4306 7.91848 20.9248 8.45754C21.4189 8.97414 22.0478 9.46828 22.8115 9.93996C23.5976 10.3892 24.4287 10.8721 25.3046 11.3887C26.1806 11.8828 27.0004 12.4668 27.7641 13.1406C28.5502 13.8145 29.1904 14.6343 29.6845 15.6001C30.1787 16.5659 30.4257 17.7451 30.4257 19.1377H24.833ZM14.5908 6.60451C14.5908 5.36916 14.9389 4.27981 15.6352 3.33645C16.3315 2.37063 17.2749 1.60696 18.4653 1.04544C19.6557 0.483916 21.0034 0.203154 22.5083 0.203154V4.44827C21.7895 4.44827 21.2168 4.63918 20.79 5.02102C20.3857 5.40286 20.1836 5.93069 20.1836 6.60451H14.5908ZM30.4257 19.1377C30.4257 20.3731 30.0776 21.4736 29.3813 22.4395C28.685 23.3828 27.7417 24.1353 26.5512 24.6968C25.3608 25.2583 24.0131 25.5391 22.5083 25.5391V21.2939C23.227 21.2939 23.7885 21.103 24.1928 20.7212C24.6196 20.3394 24.833 19.8115 24.833 19.1377H30.4257ZM24.6645 7.10988C24.5522 6.25637 24.3051 5.605 23.9233 5.15578C23.5639 4.68411 23.0922 4.44827 22.5083 4.44827V0.203154C23.7885 0.203154 24.9116 0.438994 25.8774 0.910673C26.8657 1.38235 27.6743 2.06741 28.3032 2.96585C28.9321 3.86428 29.3476 4.95364 29.5498 6.23391L24.6645 7.10988ZM19.476 17.2847C19.5434 18.5425 19.8466 19.5308 20.3857 20.2495C20.9248 20.9458 21.6323 21.2939 22.5083 21.2939V25.5391C20.1948 25.5391 18.3305 24.8877 16.9155 23.585C15.5005 22.2822 14.6806 20.4741 14.456 18.1607L19.476 17.2847ZM37.8697 25V20.7549H46.4273V25H37.8697ZM37.8697 14.9937V10.7486H44.4058V14.9937H37.8697ZM33.6246 0.742217H39.2173V25H33.6246V0.742217ZM38.2066 0.742217H46.0904V4.98733H38.2066V0.742217ZM59.7849 25L55.6071 13.8482H60.9978L65.1755 25H59.7849ZM55.0681 16.2066V11.9614H56.7526V16.2066H55.0681ZM55.0681 4.98733V0.742217H56.7526V4.98733H55.0681ZM59.0437 9.16506V7.78371H64.6364V9.16506H59.0437ZM64.6364 7.8174H59.0437C59.0437 6.91897 58.8303 6.22268 58.4035 5.72854C57.9992 5.2344 57.4377 4.98733 56.7189 4.98733V0.742217C58.2238 0.742217 59.5715 1.05667 60.7619 1.68557C61.9523 2.29202 62.8957 3.1343 63.592 4.21243C64.2883 5.26809 64.6364 6.46975 64.6364 7.8174ZM64.6364 9.13137C64.6364 10.479 64.2883 11.6919 63.592 12.77C62.8957 13.8257 61.9523 14.668 60.7619 15.2969C59.5715 15.9033 58.2238 16.2066 56.7189 16.2066V11.9614C57.4377 11.9614 57.9992 11.7144 58.4035 11.2202C58.8303 10.7261 59.0437 10.0298 59.0437 9.13137H64.6364ZM49.8122 25V0.742217H55.405V25H49.8122ZM72.9627 25L78.9934 0.742217H84.384L78.3533 25H72.9627ZM72.8953 25L66.8645 0.742217H72.2551L78.2859 25H72.8953ZM86.7688 25V0.742217H92.3615V25H86.7688ZM96.3932 18.4976V7.24465H101.986V18.4976H96.3932ZM96.3932 7.27834C96.3932 5.93069 96.7413 4.72903 97.4376 3.67337C98.1339 2.59524 99.0772 1.75296 100.268 1.14651C101.458 0.517607 102.806 0.203154 104.311 0.203154V4.44827C103.592 4.44827 103.019 4.69534 102.592 5.18948C102.188 5.68362 101.986 6.3799 101.986 7.27834H96.3932ZM96.3932 18.4639H101.986C101.986 19.3623 102.188 20.0586 102.592 20.5527C103.019 21.0469 103.592 21.2939 104.311 21.2939V25.5391C102.806 25.5391 101.458 25.2358 100.268 24.6294C99.0772 24.0005 98.1339 23.1582 97.4376 22.1025C96.7413 21.0244 96.3932 19.8115 96.3932 18.4639ZM107.309 8.45754C107.242 7.19973 106.939 6.22268 106.399 5.52639C105.86 4.80764 105.153 4.44827 104.277 4.44827V0.203154C106.59 0.203154 108.455 0.854521 109.87 2.15725C111.285 3.43753 112.105 5.24563 112.329 7.58156L107.309 8.45754ZM107.309 17.2847L112.329 18.1607C112.105 20.4741 111.285 22.2822 109.87 23.585C108.455 24.8877 106.59 25.5391 104.277 25.5391V21.2939C105.153 21.2939 105.86 20.9458 106.399 20.2495C106.939 19.5308 107.242 18.5425 107.309 17.2847ZM119.598 25V20.7549H128.155V25H119.598ZM119.598 14.9937V10.7486H126.134V14.9937H119.598ZM115.352 0.742217H120.945V25H115.352V0.742217ZM119.934 0.742217H127.818V4.98733H119.934V0.742217Z" fill="#FFFF00"/>
</svg>
